<svg width="384" height="85" viewBox="0 0 384 85" fill="none" xmlns="http://www.w3.org/2000/svg">
<g clip-path="url(#clip0_4169_2099)">
<path d="M1.1 74.89V83.41H0V74.89H1.1Z" fill="white"/>
<path d="M5.44995 83.41V74.89H6.64995L9.37995 79.2C10.01 80.2 10.51 81.1 10.91 81.97H10.94C10.84 80.82 10.81 79.78 10.81 78.45V74.88H11.85V83.4H10.74L8.02995 79.08C7.43995 78.13 6.86995 77.16 6.43995 76.24H6.39995C6.45995 77.33 6.48995 78.35 6.48995 79.77V83.41H5.44995Z" fill="white"/>
<path d="M22.67 83.03C22.18 83.21 21.2 83.5 20.05 83.5C18.76 83.5 17.7 83.17 16.86 82.38C16.13 81.67 15.67 80.53 15.67 79.21C15.68 76.67 17.43 74.81 20.28 74.81C21.27 74.81 22.04 75.03 22.4 75.2L22.13 76.1C21.67 75.9 21.11 75.73 20.25 75.73C18.18 75.73 16.82 77.02 16.82 79.16C16.82 81.3 18.12 82.6 20.11 82.6C20.83 82.6 21.32 82.5 21.58 82.37V79.83H19.85V78.95H22.66V83.05L22.67 83.03Z" fill="white"/>
<path d="M31.19 79.42H27.88V82.49H31.57V83.41H26.78V74.89H31.38V75.81H27.88V78.5H31.19V79.41V79.42Z" fill="white"/>
<path d="M35.42 83.41V74.89H36.62L39.35 79.2C39.98 80.2 40.48 81.1 40.88 81.97H40.91C40.81 80.82 40.78 79.78 40.78 78.45V74.88H41.82V83.4H40.71L38 79.08C37.41 78.13 36.84 77.16 36.41 76.24H36.37C36.43 77.33 36.46 78.35 36.46 79.77V83.41H35.42Z" fill="white"/>
<path d="M47.26 74.89V83.41H46.16V74.89H47.26Z" fill="white"/>
<path d="M56.02 79.42H52.71V82.49H56.4V83.41H51.61V74.89H56.21V75.81H52.71V78.5H56.02V79.41V79.42Z" fill="white"/>
<path d="M60.25 75C60.81 74.89 61.6 74.82 62.36 74.82C63.54 74.82 64.29 75.03 64.83 75.52C65.26 75.9 65.5 76.48 65.5 77.14C65.5 78.26 64.79 79.01 63.89 79.31V79.35C64.55 79.58 64.94 80.18 65.14 81.07C65.42 82.26 65.62 83.08 65.8 83.41H64.66C64.52 83.17 64.33 82.44 64.09 81.37C63.84 80.19 63.38 79.75 62.38 79.71H61.34V83.4H60.24V74.99L60.25 75ZM61.35 78.88H62.48C63.66 78.88 64.4 78.23 64.4 77.26C64.4 76.16 63.6 75.68 62.44 75.67C61.91 75.67 61.53 75.72 61.35 75.77V78.88Z" fill="white"/>
<path d="M71.87 72.96L70.25 74.44H69.35L70.51 72.96H71.86H71.87ZM70.57 74.89V83.41H69.47V74.89H70.57Z" fill="white"/>
<path d="M76.3 80.73L75.42 83.41H74.28L77.18 74.89H78.51L81.42 83.41H80.24L79.33 80.73H76.31H76.3ZM79.09 79.87L78.26 77.42C78.07 76.86 77.94 76.36 77.82 75.87H77.79C77.66 76.38 77.52 76.89 77.36 77.41L76.53 79.88H79.1L79.09 79.87Z" fill="white"/>
<path d="M94.59 79.42H91.2801V82.49H94.9701V83.41H90.1801V74.89H94.7801V75.81H91.2801V78.5H94.59V79.41V79.42Z" fill="white"/>
<path d="M98.8199 83.41V74.89H100.02L102.75 79.2C103.38 80.2 103.88 81.1 104.28 81.97H104.31C104.21 80.82 104.18 79.78 104.18 78.45V74.88H105.22V83.4H104.11L101.4 79.08C100.81 78.13 100.24 77.16 99.8099 76.24H99.7699C99.8299 77.33 99.8599 78.35 99.8599 79.77V83.41H98.8199Z" fill="white"/>
<path d="M121.85 79.67C121.79 78.48 121.71 77.05 121.72 75.99H121.68C121.39 76.99 121.04 78.05 120.61 79.23L119.11 83.36H118.28L116.9 79.3C116.5 78.1 116.15 77 115.91 75.99H115.88C115.85 77.05 115.79 78.48 115.72 79.76L115.49 83.41H114.44L115.03 74.89H116.43L117.88 79.01C118.23 80.06 118.52 80.99 118.74 81.88H118.78C119 81.02 119.3 80.09 119.68 79.01L121.2 74.89H122.6L123.13 83.41H122.06L121.85 79.67Z" fill="white"/>
<path d="M128.51 80.73L127.63 83.41H126.49L129.39 74.89H130.72L133.63 83.41H132.45L131.54 80.73H128.52H128.51ZM131.3 79.87L130.47 77.42C130.28 76.86 130.15 76.36 130.03 75.87H130C129.87 76.38 129.73 76.89 129.57 77.41L128.74 79.88H131.31L131.3 79.87Z" fill="white"/>
<path d="M144.13 84.66C142.98 84.36 141.85 84.01 140.87 83.67C140.69 83.61 140.52 83.54 140.35 83.54C138.33 83.46 136.6 81.97 136.6 79.23C136.6 76.49 138.27 74.74 140.57 74.74C142.87 74.74 144.39 76.53 144.39 79.05C144.39 81.24 143.38 82.64 141.96 83.13V83.18C142.81 83.4 143.73 83.6 144.45 83.72L144.13 84.64V84.66ZM143.22 79.11C143.22 77.4 142.34 75.65 140.53 75.65C138.72 75.65 137.76 77.37 137.77 79.22C137.76 81.03 138.76 82.66 140.48 82.66C142.2 82.66 143.22 81.07 143.22 79.12V79.11Z" fill="white"/>
<path d="M149.33 74.89V79.93C149.33 81.84 150.18 82.65 151.31 82.65C152.57 82.65 153.38 81.82 153.38 79.93V74.89H154.49V79.86C154.49 82.48 153.11 83.55 151.27 83.55C149.53 83.55 148.21 82.55 148.21 79.91V74.89H149.32H149.33Z" fill="white"/>
<path d="M159.93 74.89V83.41H158.83V74.89H159.93Z" fill="white"/>
<path d="M164.28 83.41V74.89H165.48L168.21 79.2C168.84 80.2 169.34 81.1 169.74 81.97H169.77C169.67 80.82 169.64 79.78 169.64 78.45V74.88H170.68V83.4H169.57L166.86 79.08C166.27 78.13 165.7 77.16 165.27 76.24H165.23C165.29 77.33 165.32 78.35 165.32 79.77V83.41H164.28Z" fill="white"/>
<path d="M176.39 80.73L175.51 83.41H174.37L177.27 74.89H178.6L181.51 83.41H180.33L179.42 80.73H176.4H176.39ZM179.19 79.87L178.36 77.42C178.17 76.86 178.04 76.36 177.92 75.87H177.89C177.76 76.38 177.62 76.89 177.46 77.41L176.63 79.88H179.2L179.19 79.87Z" fill="white"/>
<path d="M185.18 75C185.74 74.89 186.53 74.82 187.29 74.82C188.47 74.82 189.22 75.03 189.76 75.52C190.19 75.9 190.43 76.48 190.43 77.14C190.43 78.26 189.72 79.01 188.82 79.31V79.35C189.48 79.58 189.87 80.18 190.07 81.07C190.35 82.26 190.55 83.08 190.73 83.41H189.59C189.45 83.17 189.26 82.44 189.02 81.37C188.77 80.19 188.31 79.75 187.31 79.71H186.27V83.4H185.17V74.99L185.18 75ZM186.28 78.88H187.41C188.59 78.88 189.33 78.23 189.33 77.26C189.33 76.16 188.53 75.68 187.37 75.67C186.84 75.67 186.46 75.72 186.28 75.77V78.88Z" fill="white"/>
<path d="M195.5 74.89V83.41H194.4V74.89H195.5Z" fill="white"/>
<path d="M201.22 80.73L200.34 83.41H199.2L202.1 74.89H203.43L206.34 83.41H205.16L204.25 80.73H201.23H201.22ZM204.02 79.87L203.19 77.42C203 76.86 202.87 76.36 202.75 75.87H202.72C202.59 76.38 202.45 76.89 202.29 77.41L201.46 79.88H204.03L204.02 79.87Z" fill="white"/>
<path d="M216.43 83.41V79.79L213.74 74.88H214.99L216.19 77.23C216.52 77.88 216.77 78.39 217.04 78.99H217.07C217.31 78.43 217.6 77.88 217.93 77.23L219.16 74.88H220.41L217.55 79.77V83.4H216.44L216.43 83.41Z" fill="white"/>
<path d="M230.27 80.73L229.39 83.41H228.25L231.15 74.89H232.48L235.39 83.41H234.21L233.3 80.73H230.28H230.27ZM233.07 79.87L232.24 77.42C232.05 76.86 231.92 76.36 231.8 75.87H231.77C231.64 76.38 231.5 76.89 231.34 77.41L230.51 79.88H233.08L233.07 79.87Z" fill="white"/>
<path d="M239.8 74.89V79.93C239.8 81.84 240.65 82.65 241.78 82.65C243.04 82.65 243.85 81.82 243.85 79.93V74.89H244.96V79.86C244.96 82.48 243.58 83.55 241.74 83.55C240 83.55 238.68 82.55 238.68 79.91V74.89H239.79H239.8Z" fill="white"/>
<path d="M250.92 75.83H248.33V74.89H254.64V75.83H252.04V83.42H250.93V75.83H250.92Z" fill="white"/>
<path d="M264.95 79.06C264.95 81.99 263.17 83.55 260.99 83.55C258.81 83.55 257.16 81.8 257.16 79.23C257.16 76.52 258.84 74.76 261.12 74.76C263.4 74.76 264.95 76.54 264.95 79.07V79.06ZM258.34 79.2C258.34 81.02 259.33 82.65 261.06 82.65C262.79 82.65 263.79 81.04 263.79 79.11C263.79 77.42 262.91 75.65 261.07 75.65C259.23 75.65 258.34 77.33 258.34 79.2Z" fill="white"/>
<path d="M275.98 79.67C275.92 78.48 275.84 77.05 275.85 75.99H275.81C275.52 76.99 275.17 78.05 274.74 79.23L273.24 83.36H272.41L271.03 79.3C270.63 78.1 270.28 77 270.04 75.99H270.01C269.98 77.05 269.92 78.48 269.85 79.76L269.62 83.41H268.57L269.16 74.89H270.56L272.01 79.01C272.36 80.06 272.65 80.99 272.87 81.88H272.91C273.13 81.02 273.43 80.09 273.81 79.01L275.33 74.89H276.73L277.26 83.41H276.19L275.98 79.67Z" fill="white"/>
<path d="M282.64 80.73L281.76 83.41H280.62L283.52 74.89H284.85L287.76 83.41H286.58L285.67 80.73H282.65H282.64ZM285.43 79.87L284.6 77.42C284.41 76.86 284.28 76.36 284.16 75.87H284.13C284 76.38 283.86 76.89 283.7 77.41L282.87 79.88H285.44L285.43 79.87Z" fill="white"/>
<path d="M292.06 75.83H289.47V74.89H295.78V75.83H293.18V83.42H292.07V75.83H292.06Z" fill="white"/>
<path d="M300.25 74.89V83.41H299.15V74.89H300.25Z" fill="white"/>
<path d="M304.01 82.77L308.74 75.85V75.81H304.42V74.89H310.17V75.56L305.47 82.45V82.49H310.24V83.41H304.02V82.76L304.01 82.77Z" fill="white"/>
<path d="M315.39 80.73L314.51 83.41H313.37L316.27 74.89H317.6L320.51 83.41H319.33L318.42 80.73H315.4H315.39ZM318.18 79.87L317.35 77.42C317.16 76.86 317.03 76.36 316.91 75.87H316.88C316.75 76.38 316.61 76.89 316.45 77.41L315.62 79.88H318.19L318.18 79.87Z" fill="white"/>
<path d="M329.93 83.13C329.53 83.33 328.72 83.53 327.68 83.53C325.28 83.53 323.47 82.01 323.47 79.22C323.47 76.43 325.28 74.75 327.92 74.75C328.98 74.75 329.65 74.98 329.94 75.13L329.67 76.03C329.25 75.83 328.66 75.68 327.95 75.68C325.95 75.68 324.62 76.96 324.62 79.19C324.62 81.28 325.82 82.62 327.89 82.62C328.56 82.62 329.24 82.48 329.69 82.27L329.92 83.14L329.93 83.13Z" fill="white"/>
<path d="M334.83 74.89V83.41H333.73V74.89H334.83Z" fill="white"/>
<path d="M346.46 79.06C346.46 81.99 344.68 83.55 342.5 83.55C340.32 83.55 338.67 81.8 338.67 79.23C338.67 76.52 340.35 74.76 342.63 74.76C344.91 74.76 346.46 76.54 346.46 79.07V79.06ZM339.85 79.2C339.85 81.02 340.84 82.65 342.57 82.65C344.3 82.65 345.3 81.04 345.3 79.11C345.3 77.42 344.42 75.65 342.58 75.65C340.74 75.65 339.85 77.33 339.85 79.2ZM344.41 72.93L342.8 74.4H341.89L343.07 72.93H344.41Z" fill="white"/>
<path d="M350.31 83.41V74.89H351.51L354.24 79.2C354.87 80.2 355.37 81.1 355.77 81.97H355.8C355.7 80.82 355.67 79.78 355.67 78.45V74.88H356.71V83.4H355.6L352.89 79.08C352.3 78.13 351.73 77.16 351.3 76.24H351.26C351.32 77.33 351.35 78.35 351.35 79.77V83.41H350.31Z" fill="white"/>
<path d="M36.81 11.16V0.100006H0V11.16H12.57V53.22H0V64.28H36.81V53.22H24.23V11.16H36.81Z" fill="white"/>
<path d="M227.3 0.100006H210.47L190.48 64.29H202.95L207.6 48.71H230L234.65 64.29H247.11L227.3 0.100006ZM210.82 37.9L218.79 11.08L226.76 37.9H210.82Z" fill="white"/>
<path d="M289.34 0.100006V40.89C289.34 49.83 285.37 54 276.83 54C268.29 54 264.49 49.71 264.49 40.89V0.100006H252.83V41.06C252.83 56.09 261.8 65.06 276.83 65.06C291.86 65.06 301 56.31 301 41.06V0.100006H289.34Z" fill="white"/>
<path d="M309.57 0.100006V11.16H327.31V64.28H338.97V11.16H356.71V0.100006H309.57Z" fill="white"/>
<path d="M89.55 0.100006V59.91L65.71 0.100006H55.58H55.46H44.09V64.28H55.58V4.89001L78.9 64.28H89.55H89.68H101.04V0.100006H89.55Z" fill="white"/>
<path d="M171.55 0.100006H171.43H161.29L145.71 57.9L130.12 0.100006H119.99H119.86H108.5V64.28H119.99V4.94001L135.46 64.28H145.16H146.25H155.95L171.43 4.94001V64.28H182.92V0.100006H171.55Z" fill="white"/>
<path d="M383.92 11.75C383.92 18.41 378.69 23.64 371.89 23.64C365.09 23.64 359.79 18.41 359.79 11.75C359.79 5.09 365.16 0 371.89 0C378.62 0 383.92 5.23 383.92 11.75ZM362.79 11.75C362.79 16.98 366.66 21.13 371.96 21.13C377.26 21.13 380.91 16.98 380.91 11.82C380.91 6.66 377.11 2.37 371.89 2.37C366.67 2.37 362.79 6.6 362.79 11.75ZM370.03 17.9H367.31V6.16C368.38 5.95 369.89 5.8 371.82 5.8C374.04 5.8 375.04 6.16 375.9 6.66C376.54 7.16 377.05 8.09 377.05 9.24C377.05 10.53 376.05 11.53 374.61 11.96V12.1C375.76 12.53 376.4 13.39 376.76 14.96C377.12 16.75 377.33 17.47 377.62 17.9H374.68C374.32 17.47 374.11 16.4 373.75 15.04C373.54 13.75 372.82 13.18 371.31 13.18H370.02V17.91L370.03 17.9ZM370.1 11.24H371.39C372.89 11.24 374.11 10.74 374.11 9.52C374.11 8.45 373.32 7.73 371.6 7.73C370.88 7.73 370.38 7.8 370.1 7.87V11.24Z" fill="white"/>
</g>
<defs>
<clipPath id="clip0_4169_2099">
<rect width="383.92" height="84.66" fill="white"/>
</clipPath>
</defs>
</svg>
