<svg width="156" height="47" viewBox="0 0 156 47" fill="none" xmlns="http://www.w3.org/2000/svg">
<path d="M32.2888 8.75523H38.0661C38.1492 9.35829 38.2278 9.93479 38.3472 10.8043C39.5976 8.57791 41.5563 8.18129 43.6195 8.20185C45.7563 8.22327 47.6147 8.91199 48.7449 11.3157C48.9559 10.9499 49.0406 10.7306 49.1859 10.5618C51.2293 8.17872 53.8789 7.7941 56.7533 8.47169C59.7202 9.17154 60.7839 11.4938 61.0234 14.1519C61.2577 16.7449 61.1462 19.3696 61.1756 21.9797C61.1894 23.256 61.2007 24.5333 61.1548 25.8079C61.147 26.0358 60.8574 26.4427 60.6896 26.4469C58.8356 26.4932 56.979 26.4761 55.0298 26.4761C55.0108 26.088 54.9823 25.7745 54.9814 25.461C54.978 22.7001 54.9814 19.9401 54.978 17.1792C54.978 16.7937 54.9633 16.4074 54.9477 16.0228C54.9045 14.9588 54.5179 14.1305 53.3981 13.7896C52.2696 13.4461 51.1895 13.6508 50.3853 14.4217C50.0039 14.7867 49.9019 15.5602 49.8863 16.1538C49.8076 19.1785 49.7981 22.2058 49.7661 25.2323C49.7618 25.6109 49.7661 25.9895 49.7661 26.4752C47.8101 26.4752 45.9569 26.4941 44.1055 26.4418C43.9438 26.4375 43.6645 25.9604 43.661 25.7C43.6282 22.9691 43.6463 20.2382 43.636 17.5073C43.6334 16.8554 43.6031 16.2018 43.5391 15.5533C43.4379 14.5357 42.7721 13.9823 41.8364 13.7347C40.8091 13.4641 39.7827 13.6773 39.0753 14.3901C38.6749 14.7935 38.5478 15.5902 38.5305 16.2164C38.4475 19.212 38.4449 22.2093 38.4138 25.2057C38.4103 25.5877 38.4138 25.9698 38.4138 26.4709C36.4508 26.4709 34.57 26.4889 32.6917 26.4349C32.5499 26.4307 32.3095 25.9175 32.3061 25.6383C32.2758 23.0856 32.2879 20.5329 32.2879 17.9801C32.2879 15.2492 32.2879 12.5183 32.2879 9.78745C32.2879 9.46708 32.2879 9.14585 32.2879 8.75608L32.2888 8.75523Z" fill="white"/>
<path d="M153.694 17.7759C153.608 20.7304 152.552 23.4733 149.906 25.1917C146.491 27.4103 142.786 27.7058 138.965 25.9883C137.223 25.2045 135.8 24.0001 135.008 22.4102C133.738 19.8618 133.511 17.1086 134.364 14.2886C135.148 11.6974 136.915 9.98329 139.283 9.01103C141.501 8.10044 143.891 7.92484 146.331 8.45251C147.779 8.76518 149.056 9.27315 150.196 10.176C152.609 12.088 153.65 14.6262 153.695 17.7751L153.694 17.7759ZM147.321 17.5284C147.309 14.914 145.802 13.2239 143.684 13.2958C141.64 13.3652 140.143 15.1778 140.289 17.4624C140.512 17.4838 140.745 17.5258 140.977 17.5258C143.069 17.5309 145.161 17.5284 147.321 17.5284H147.321Z" fill="white"/>
<path d="M89.7692 20.44C90.563 21.5365 91.3119 22.6055 92.0988 23.6463C92.59 24.2965 92.5018 24.7642 91.7815 25.1488C87.8209 27.2664 83.7886 27.8926 79.5981 25.7844C77.6057 24.7822 76.2031 23.1863 75.5943 21.1441C75.0132 19.1962 75.0054 17.1403 75.4015 15.0724C75.9757 12.0794 77.8219 10.1375 80.4455 8.9502C82.3324 8.09701 84.4268 8.01135 86.5325 8.26491C88.8915 8.54845 90.7394 9.68261 92.0651 11.5072C92.7725 12.4812 93.1841 13.7378 93.4582 14.9285C93.7782 16.3214 93.8032 17.7802 93.9701 19.341H81.5187C82.5235 22.1935 85.5614 22.5738 89.7683 20.44H89.7692ZM87.4482 15.4793C87.0392 13.3541 85.992 12.9112 84.6577 12.8504C83.2118 12.7844 81.7677 13.9914 81.4901 15.4793H87.4482Z" fill="white"/>
<path d="M115.07 26.4231H109.025C109.025 26.0505 109.025 25.7336 109.025 25.4157C109.025 22.4758 109.04 19.5368 109.016 16.5969C109.007 15.5629 109.02 14.4896 107.817 13.9516C106.573 13.3957 105.402 13.6167 104.315 14.302C104.039 14.4759 103.799 14.9265 103.788 15.258C103.679 18.5465 103.621 21.8368 103.551 25.1262C103.542 25.5348 103.55 25.9426 103.55 26.4146H97.494V8.76911H103.162C103.259 9.33876 103.351 9.87928 103.471 10.5851C104.46 9.04922 105.938 8.64062 107.465 8.30397C109.023 7.95961 110.573 8.17547 111.949 8.80337C113.21 9.37902 114.046 10.586 114.546 11.8778C114.872 12.7198 115.079 13.6587 115.093 14.5581C115.153 18.239 115.119 21.9216 115.116 25.6033C115.116 25.8629 115.088 26.1225 115.071 26.4231H115.07Z" fill="white"/>
<path d="M120.498 13.7643H117.131C117.495 12.0357 117.839 10.4064 118.197 8.70599H120.514V4.5H126.498V8.71199H132.006V13.7523C130.467 13.7523 128.974 13.784 127.483 13.7386C126.767 13.7163 126.468 13.886 126.498 14.6638C126.557 16.2048 126.511 17.7502 126.517 19.2929C126.523 21.3437 127.5 22.0846 129.506 21.5604C129.88 21.4627 130.246 21.3317 130.766 21.1681C131.316 22.6312 131.868 24.1037 132.44 25.6242C131.247 26.5305 129.901 26.8243 128.55 27.0025C126.221 27.3091 124.069 26.7335 122.239 25.2867C121.308 24.5517 120.76 23.4861 120.721 22.2654C120.639 19.6878 120.595 17.1085 120.533 14.5293C120.528 14.3228 120.515 14.1172 120.499 13.7626L120.498 13.7643Z" fill="white"/>
<path d="M15.0673 20.4315C16.0756 21.8612 17.0433 23.2335 18.0057 24.5989C15.536 27.5654 8.16321 27.7401 4.92734 25.2328C0.408182 21.7301 1.25217 14.2441 3.44517 11.5843C7.30193 6.90636 15.2351 7.48029 17.8665 10.2583C17.8406 10.3448 17.8319 10.4682 17.7705 10.5564C17.0182 11.6503 16.2425 12.7288 15.5084 13.8338C15.1547 14.3666 14.7707 14.5474 14.2061 14.1662C12.5674 13.0612 10.9425 13.2453 9.32716 14.2219C9.20177 14.2981 9.06168 14.3589 8.95359 14.4549C7.57951 15.6713 7.31749 18.5898 8.4382 20.1394C9.58399 21.7233 11.956 22.2021 13.765 21.2067C14.1818 20.9771 14.5839 20.7202 15.0665 20.4315H15.0673Z" fill="white"/>
<path d="M71.4479 26.4266H65.4137V8.78711H71.4479V26.4266Z" fill="white"/>
<path d="M27.4799 26.4302H21.6324V8.76074H27.4799V26.4302Z" fill="white"/>
<path d="M24.557 7.52148C26.3671 7.52148 27.8344 6.06793 27.8344 4.2749C27.8344 2.48186 26.3671 1.02832 24.557 1.02832C22.747 1.02832 21.2797 2.48186 21.2797 4.2749C21.2797 6.06793 22.747 7.52148 24.557 7.52148Z" fill="white"/>
<path d="M68.4057 7.52148C70.2157 7.52148 71.6831 6.06793 71.6831 4.2749C71.6831 2.48186 70.2157 1.02832 68.4057 1.02832C66.5956 1.02832 65.1283 2.48186 65.1283 4.2749C65.1283 6.06793 66.5956 7.52148 68.4057 7.52148Z" fill="white"/>
<path d="M7.55966 43.3574H6.1164V39.3887C6.1164 38.467 5.52492 37.8443 4.64547 37.8443C3.76602 37.8443 3.10622 38.4807 3.10622 39.3887V43.3574H1.66296V36.7067H3.01024V37.356C3.51871 36.8275 4.19234 36.5576 5.03028 36.5576C6.61103 36.5576 7.5588 37.6147 7.5588 39.1994V43.3574H7.55966Z" fill="white"/>
<path d="M10.575 33.2793C11.1102 33.2793 11.5504 33.6982 11.5504 34.2267C11.5504 34.7552 11.1102 35.1621 10.575 35.1621C10.0397 35.1621 9.58484 34.7552 9.58484 34.2267C9.58484 33.6982 10.025 33.2793 10.575 33.2793ZM9.84599 36.7066H11.2893V43.3574H9.84599V36.7066Z" fill="white"/>
<path d="M16.8029 36.5576C18.0533 36.5576 19.0564 37.1401 19.6479 38.1021L18.631 38.8876C18.1502 38.21 17.5457 37.8717 16.8167 37.8717C15.6078 37.8717 14.7007 38.8199 14.7007 40.0261C14.7007 41.2322 15.6078 42.1933 16.8167 42.1933C17.5319 42.1933 18.1363 41.8549 18.631 41.1911L19.6479 41.9629C19.0434 42.9249 18.0265 43.5074 16.8029 43.5074C14.8097 43.5074 13.2289 41.9629 13.2289 40.0261C13.1874 38.1158 14.865 36.5311 16.8029 36.5585V36.5576Z" fill="white"/>
<path d="M22.4273 40.5005C22.6063 41.5833 23.4719 42.248 24.6263 42.248C25.3276 42.248 25.9874 41.991 26.5919 41.4625L27.2785 42.4373C26.5089 43.1552 25.6156 43.5072 24.5848 43.5072C22.5233 43.5072 20.9563 42.0039 20.9563 40.0396C20.9148 38.1294 22.5371 36.5181 24.4473 36.5584C26.2339 36.5584 27.5673 37.8724 27.5673 39.6062C27.5673 39.8906 27.5258 40.1887 27.4575 40.5005H22.4273ZM26.1249 39.3895C26.112 38.3735 25.3415 37.7636 24.3937 37.7636C23.4459 37.7636 22.6755 38.4001 22.4558 39.3895H26.1249Z" fill="white"/>
<path d="M40.7279 39.9573C40.2055 40.7292 39.8207 41.2577 39.5734 41.5567L41.0859 43.3581H39.3676L38.6663 42.5186C37.9105 43.1679 37.1132 43.5072 36.1101 43.5072C34.4334 43.5072 33.2374 42.5049 33.2374 41.1095C33.2374 40.6349 33.3749 40.1886 33.6637 39.7826C33.9526 39.3757 34.461 38.9011 35.1762 38.3598C34.5717 37.6008 34.2967 36.9789 34.2967 36.315C34.2967 35.0815 35.1624 34.2686 36.4681 34.2686C37.7739 34.2686 38.598 35.0404 38.598 36.166C38.598 36.9917 38.131 37.7233 37.0449 38.5499L38.681 40.4867C38.8047 40.3248 39.0796 39.9188 39.5336 39.2549C39.6296 39.1059 39.7671 38.8891 39.9738 38.6039L41.1282 39.3903L40.7296 39.9582L40.7279 39.9573ZM35.9865 39.3209C35.478 39.7132 35.1338 40.0259 34.9695 40.2417C34.8043 40.4593 34.7222 40.7026 34.7222 40.9742C34.7222 41.6911 35.3137 42.2197 36.1793 42.2197C36.7431 42.2197 37.2792 41.9755 37.8007 41.4881L35.9865 39.3209ZM36.2882 37.6411C36.9896 37.0997 37.2498 36.7476 37.2498 36.273C37.2498 35.7985 36.9472 35.5141 36.4526 35.5141C35.9579 35.5141 35.6414 35.7985 35.6414 36.327C35.6414 36.7193 35.8343 37.0586 36.2874 37.6411H36.2882Z" fill="white"/>
<path d="M53.571 36.7065V42.6669C53.571 44.7656 52.2376 45.9452 50.1899 45.9452C48.8564 45.9452 47.7573 45.4303 46.9462 44.6859L47.7435 43.6965C48.4993 44.2919 49.1868 44.6448 50.1077 44.6448C51.3313 44.6448 52.1278 43.9938 52.1278 42.7474V42.2728C51.6193 42.8828 50.7813 43.2211 49.8466 43.2211C47.964 43.2211 46.5623 41.8257 46.5623 39.8889C46.5623 37.9521 47.9778 36.5566 49.8466 36.5566C50.8773 36.5566 51.7429 36.9627 52.2384 37.654V36.7057H53.5719L53.571 36.7065ZM50.1077 37.8304C49.5171 37.8304 49.0363 38.0197 48.6376 38.3992C48.239 38.7787 48.0462 39.2798 48.0462 39.8897C48.0462 40.4996 48.239 41.0136 48.6376 41.4059C49.0363 41.7854 49.5171 41.9747 50.1077 41.9747C50.6983 41.9747 51.1385 41.7991 51.5371 41.4334C51.9358 41.0676 52.1416 40.5528 52.1416 39.876C52.1416 38.5217 51.2206 37.8296 50.1077 37.8296V37.8304Z" fill="white"/>
<path d="M59.0734 36.5584C61.0389 36.5173 62.7018 38.1431 62.6603 40.026C62.7018 41.9088 61.0389 43.5475 59.0734 43.5073C57.1355 43.5484 55.4726 41.9088 55.5132 40.026C55.4717 38.1157 57.1346 36.531 59.0734 36.5584ZM59.0872 37.8587C57.8913 37.8587 56.9841 38.8061 56.9841 40.0397C56.9841 41.2732 57.8913 42.1941 59.0734 42.1941C60.2555 42.1941 61.1764 41.2458 61.1764 40.0397C61.1764 38.8336 60.2555 37.8587 59.0872 37.8587Z" fill="white"/>
<path d="M67.7225 36.5584C69.6881 36.5173 71.351 38.1431 71.3095 40.026C71.351 41.9088 69.6881 43.5475 67.7225 43.5073C65.7846 43.5484 64.1217 41.9088 64.1624 40.026C64.1209 38.1157 65.7838 36.531 67.7225 36.5584ZM67.7372 37.8587C66.5413 37.8587 65.6342 38.8061 65.6342 40.0397C65.6342 41.2732 66.5413 42.1941 67.7234 42.1941C68.9055 42.1941 69.8265 41.2458 69.8265 40.0397C69.8265 38.8336 68.9055 37.8587 67.7372 37.8587Z" fill="white"/>
<path d="M79.8221 33.1982V43.3577H78.4749V42.4094C77.9802 43.1007 77.1146 43.5068 76.1107 43.5068C74.2143 43.5068 72.8116 42.0034 72.8116 40.0392C72.7701 38.1024 74.2411 36.5176 76.1107 36.5579C77.0454 36.5579 77.8557 36.91 78.365 37.5199V33.1982H79.8221ZM76.3588 37.8582C75.2044 37.8582 74.2843 38.7517 74.2843 40.0255C74.2843 41.2993 75.1638 42.2064 76.3588 42.2064C77.4173 42.2064 78.3927 41.4886 78.3927 40.0392C78.3927 38.5898 77.4034 37.8582 76.3588 37.8582Z" fill="white"/>
<path d="M89.464 36.5576C90.7144 36.5576 91.7176 37.1401 92.309 38.1021L91.2921 38.8876C90.8113 38.21 90.2068 37.8717 89.4779 37.8717C88.2689 37.8717 87.3618 38.8199 87.3618 40.0261C87.3618 41.2322 88.2689 42.1933 89.4779 42.1933C90.193 42.1933 90.7975 41.8549 91.2921 41.1911L92.309 41.9629C91.7046 42.9249 90.6876 43.5074 89.464 43.5074C87.4708 43.5074 85.89 41.9629 85.89 40.0261C85.8485 38.1158 87.5261 36.5311 89.464 36.5585V36.5576Z" fill="white"/>
<path d="M97.1775 36.5584C99.1431 36.5173 100.806 38.1431 100.764 40.026C100.806 41.9088 99.1431 43.5475 97.1775 43.5073C95.2396 43.5484 93.5767 41.9088 93.6173 40.026C93.5758 38.1157 95.2387 36.531 97.1775 36.5584ZM97.1913 37.8587C95.9954 37.8587 95.0883 38.8061 95.0883 40.0397C95.0883 41.2732 95.9954 42.1941 97.1775 42.1941C98.3596 42.1941 99.2806 41.2458 99.2806 40.0397C99.2806 38.8336 98.3596 37.8587 97.1913 37.8587Z" fill="white"/>
<path d="M108.59 43.3574H107.146V39.3887C107.146 38.467 106.555 37.8443 105.675 37.8443C104.796 37.8443 104.136 38.4807 104.136 39.3887V43.3574H102.693V36.7067H104.04V37.356C104.549 36.8275 105.222 36.5576 106.06 36.5576C107.641 36.5576 108.589 37.6147 108.589 39.1994V43.3574H108.59Z" fill="white"/>
<path d="M111.068 41.3255C111.659 41.9346 112.25 42.273 112.964 42.273C113.583 42.273 114.05 42.016 114.05 41.5286C114.05 41.1362 113.762 40.9735 113.102 40.7028L112.414 40.4184C111.218 39.931 110.655 39.4161 110.655 38.4816C110.655 37.2892 111.659 36.5576 113.033 36.5576C114.01 36.5576 114.779 36.896 115.37 37.5864L114.587 38.467C114.16 38.0336 113.596 37.7894 113.006 37.7894C112.415 37.7894 112.085 38.007 112.085 38.4268C112.085 38.7651 112.318 38.9407 112.978 39.2123L113.624 39.4693C114.902 39.9978 115.466 40.5392 115.466 41.4746C115.466 42.1111 115.232 42.613 114.751 42.978C114.27 43.33 113.679 43.5065 112.964 43.5065C111.81 43.5065 110.847 42.9917 110.243 42.219L111.067 41.3255H111.068Z" fill="white"/>
<path d="M117.339 36.707H118.768V40.6757C118.768 41.5966 119.414 42.1937 120.295 42.1937C121.175 42.1937 121.779 41.5966 121.779 40.6757V36.707H123.222V40.5678C123.222 42.3556 121.944 43.5069 120.295 43.5069C118.646 43.5069 117.34 42.3556 117.34 40.5678V36.707H117.339Z" fill="white"/>
<path d="M125.52 33.1982H126.964V43.3577H125.52V33.1982Z" fill="white"/>
<path d="M133.343 43.3573C132.889 43.4523 132.49 43.5063 132.147 43.5063C130.594 43.5063 129.659 42.7473 129.659 41.19V37.9383H128.559V36.7065H129.659V34.959H131.116V36.7065H133.122V37.9383H131.116V41.0675C131.116 41.9216 131.569 42.2188 132.449 42.2188C132.655 42.2188 132.943 42.1923 133.342 42.1511V43.3564L133.343 43.3573Z" fill="white"/>
<path d="M135.807 33.2793C136.342 33.2793 136.782 33.6982 136.782 34.2267C136.782 34.7552 136.342 35.1621 135.807 35.1621C135.271 35.1621 134.816 34.7552 134.816 34.2267C134.816 33.6982 135.257 33.2793 135.807 33.2793ZM135.078 36.7066H136.521V43.3574H135.078V36.7066Z" fill="white"/>
<path d="M144.783 43.3574H143.34V39.3887C143.34 38.467 142.749 37.8443 141.869 37.8443C140.99 37.8443 140.33 38.4807 140.33 39.3887V43.3574H138.887V36.7067H140.234V37.356C140.742 36.8275 141.416 36.5576 142.254 36.5576C143.835 36.5576 144.783 37.6147 144.783 39.1994V43.3574H144.783Z" fill="white"/>
<path d="M153.694 36.7065V42.6669C153.694 44.7656 152.36 45.9452 150.313 45.9452C148.98 45.9452 147.88 45.4303 147.069 44.6859L147.866 43.6965C148.622 44.2919 149.31 44.6448 150.231 44.6448C151.454 44.6448 152.251 43.9938 152.251 42.7474V42.2728C151.743 42.8828 150.904 43.2211 149.969 43.2211C148.087 43.2211 146.685 41.8257 146.685 39.8889C146.685 37.9521 148.101 36.5566 149.969 36.5566C151 36.5566 151.866 36.9627 152.36 37.654V36.7057H153.695L153.694 36.7065ZM150.231 37.8304C149.64 37.8304 149.159 38.0197 148.76 38.3992C148.362 38.7787 148.169 39.2798 148.169 39.8897C148.169 40.4996 148.362 41.0136 148.76 41.4059C149.159 41.7854 149.64 41.9747 150.231 41.9747C150.821 41.9747 151.261 41.7991 151.66 41.4334C152.059 41.0676 152.264 40.5528 152.264 39.876C152.264 38.5217 151.343 37.8296 150.231 37.8296V37.8304Z" fill="white"/>
</svg>
