<svg width="340" height="63" viewBox="0 0 340 63" fill="none" xmlns="http://www.w3.org/2000/svg">
<g clip-path="url(#clip0_4292_364)">
<path d="M339.816 28.1696C339.533 25.6165 338.967 23.1347 338.061 20.7385C337.425 19.0269 336.675 17.3439 335.684 15.8177C334.793 14.4628 333.93 13.0792 332.897 11.8383C330.788 9.29952 328.354 7.10301 325.524 5.37718C324.647 4.83518 323.741 4.33597 322.822 3.87955C321.845 3.40887 320.827 3.02377 319.836 2.61014C318.138 1.91125 316.355 1.51188 314.544 1.1981C312.69 0.884308 310.808 0.741677 308.926 0.784466C306.507 0.841519 304.115 1.14104 301.78 1.76862C299.913 2.28209 298.059 2.86688 296.347 3.79398C294.861 4.60697 293.375 5.43423 291.96 6.37559C290.998 7.00317 290.135 7.8019 289.272 8.55784C287.135 10.412 285.31 12.5372 283.824 14.9477C282.89 16.4738 282.112 18.1141 281.362 19.7401C280.414 21.7797 279.862 23.9477 279.48 26.1585C278.829 29.8811 278.871 33.6038 279.565 37.3265C279.989 39.5515 280.64 41.7052 281.532 43.7734C282.281 45.4992 283.187 47.1395 284.234 48.7227C285.395 50.4628 286.725 52.0887 288.21 53.5293C290.05 55.3122 292.059 56.8811 294.295 58.1648C296.149 59.2203 298.087 60.1046 300.111 60.775C302.445 61.5452 304.851 62.0158 307.313 62.187C310.143 62.3724 312.945 62.2583 315.718 61.6022C317.218 61.2456 318.718 60.8463 320.161 60.3328C321.845 59.7338 323.487 58.9778 324.987 57.9937C326.317 57.1093 327.689 56.2536 328.92 55.2266C330.661 53.7718 332.246 52.1458 333.647 50.3201C334.694 48.9366 335.656 47.496 336.462 45.9699C337.34 44.3154 338.019 42.5895 338.613 40.8067C339.448 38.2821 339.547 35.7005 339.222 33.1189C339.052 31.8209 338.656 30.5372 338.26 29.2821C337.538 26.9429 336.349 24.832 334.835 22.9493C332.84 20.4532 330.449 18.4279 327.633 16.8875C325.114 15.504 322.468 14.5198 319.638 13.9921C319.468 13.9635 319.298 13.935 319.128 13.9065C318.407 14.3059 317.331 14.4913 316.157 14.3201C315.336 14.206 314.629 13.9493 314.091 13.607C312.818 13.6783 311.544 13.8494 310.27 14.1204C308.063 14.6054 305.941 15.3471 303.988 16.5024C302.799 17.2013 301.611 17.9287 300.493 18.7417C298.554 20.1822 296.771 21.8082 295.385 23.8193C294.55 25.0317 293.998 26.3439 293.715 27.7845C293.672 27.9699 293.672 28.1553 293.644 28.412C293.814 28.3265 293.899 28.2979 293.955 28.2551C294.507 27.8273 295.045 27.3994 295.597 26.9715C296.304 26.4009 296.969 25.7591 297.719 25.2599C298.696 24.6038 299.714 24.0048 300.762 23.4628C301.837 22.9065 302.941 22.4216 304.073 21.9937C306.266 21.1949 308.544 20.8811 310.865 20.9525C313.935 21.038 316.907 21.6799 319.794 22.7211C321.661 23.3914 323.402 24.3043 325.001 25.4596C327.137 27 328.906 28.9112 330.222 31.2361C331.142 32.8621 331.807 34.588 332.161 36.4136C332.642 38.8811 332.642 41.2916 332.132 43.6735C332.161 43.7734 332.189 43.8732 332.203 43.9731C332.472 44.6862 332.614 45.4422 332.642 46.1981C332.656 46.5975 332.642 47.0111 332.599 47.4105C332.571 47.8669 332.472 48.309 332.345 48.7512C332.161 49.3645 331.92 49.9493 331.595 50.4913C331.283 51.0048 330.93 51.4754 330.519 51.9176C330.519 51.9176 330.505 51.9319 330.477 51.9319C330.576 51.7892 330.675 51.6609 330.76 51.5182C331.142 50.9334 331.411 50.3201 331.552 49.6355C331.708 48.9081 331.722 48.1949 331.595 47.4675C331.227 48.0951 330.746 48.5372 330.236 48.6941C329.529 49.9921 328.666 51.1902 327.633 52.2599C326.685 53.2298 325.666 54.1426 324.59 54.9699C323.741 55.626 322.822 56.1965 321.859 56.6529C320.628 57.2377 319.341 57.7227 318.053 58.1791C317.303 58.4501 316.497 58.5642 315.718 58.7639C315.718 58.7211 315.69 58.6783 315.676 58.6498C315.732 58.607 315.789 58.5499 315.86 58.5357C316.992 58.1506 318.124 57.794 319.242 57.3803C321.025 56.71 322.68 55.7829 324.18 54.5848C326.274 52.9017 327.902 50.8621 328.963 48.4089C328.312 47.7956 328.001 46.5119 328.255 45.1284C328.51 43.7734 329.218 42.7036 330.01 42.3471C330.01 42.2472 329.982 42.1331 329.968 42.0333C329.741 40.2789 329.218 38.5959 328.411 37.0127C327.562 35.3439 326.345 34.1173 324.562 33.5182C324.435 33.4754 324.265 33.5182 324.123 33.504C324.123 33.6751 324.095 33.8748 324.166 34.0032C324.972 35.5151 325.638 37.0983 326.161 38.7385C326.741 40.5642 327.01 42.4326 326.897 44.3582C326.741 46.897 325.822 49.1506 324.322 51.1474C322.737 53.2441 320.784 54.9128 318.407 56.0539C316.398 57.0095 314.303 57.5943 312.11 57.8653C309.832 58.1506 307.568 58.1078 305.304 57.7369C303.507 57.4517 301.752 56.9952 300.068 56.2964C298.965 55.8257 297.861 55.3407 296.771 54.813C296.205 54.542 295.653 54.1997 295.116 53.8574C294.932 53.7433 294.79 53.5436 294.635 53.3867C295.002 53.5151 295.314 53.6862 295.639 53.8574C296.446 54.2853 297.238 54.7987 298.087 55.1268C299.573 55.7116 301.073 56.2678 302.601 56.6957C305.516 57.5087 308.488 57.7227 311.487 57.1379C312.025 57.0238 312.563 56.8526 313.101 56.6957C313.101 56.6529 313.086 56.6101 313.072 56.5673C312.803 56.5959 312.52 56.6244 312.252 56.6529C311.332 56.7385 310.426 56.8954 309.506 56.9097C306.846 56.9667 304.257 56.5388 301.724 55.683C299.474 54.9271 297.351 53.9002 295.427 52.5024C293.658 51.233 291.96 49.8494 290.602 48.1236C289.71 47.0111 288.819 45.87 288.055 44.6719C287.361 43.6022 286.753 42.4612 286.244 41.2916C285.578 39.7654 284.942 38.1965 284.475 36.599C284.248 35.8288 284.064 35.0444 283.923 34.2599C283.696 34.0887 283.484 33.8177 283.329 33.4754C283.201 33.9033 283.145 34.3455 283.145 34.8019C283.145 35.4152 283.258 36 283.47 36.5705C283.527 36.7132 283.583 36.8415 283.64 36.9699C283.626 36.9699 283.612 36.9699 283.612 36.9556C283.343 36.5135 283.116 36.0285 282.961 35.5293C282.791 35.0016 282.678 34.4596 282.635 33.8891C282.607 33.4897 282.607 33.0903 282.664 32.691C282.72 32.3344 282.763 31.9921 282.862 31.6498C282.932 31.393 283.017 31.1506 283.116 30.9081C283.201 30.6513 283.314 30.4517 283.47 30.309C283.428 29.6101 283.413 28.897 283.413 28.1981C283.413 25.645 283.711 23.1347 284.291 20.6529C284.701 18.9128 285.196 17.2013 285.946 15.561C286.498 14.3629 287.093 13.1791 287.673 12.0095C287.743 11.8811 287.885 11.7813 288.069 11.5959C288.041 11.767 288.041 11.8098 288.026 11.8383C287.432 13.2504 286.795 14.6482 286.229 16.0745C285.409 18.1141 284.899 20.2536 284.545 22.4216C284.135 24.9889 283.994 27.5563 284.163 30.1236C284.701 30.2805 285.211 31.065 285.366 32.0777C285.536 33.1474 285.253 34.103 284.729 34.3597C285.225 36.8843 286.003 39.309 287.135 41.6196C288.493 44.3867 290.347 46.8114 292.54 48.9651C293.715 50.1204 295.031 51.1189 296.417 52.0032C296.927 52.3312 297.479 52.588 298.002 52.8875C298.031 52.8447 298.059 52.7876 298.087 52.7448C297.733 52.5024 297.38 52.2599 297.04 52.0032C294.663 50.2203 292.682 48.0523 291.182 45.4707C290.177 43.7448 289.441 41.9049 288.932 39.9651C288.125 36.8986 288.026 33.8177 288.649 30.7084C289.13 28.2979 289.965 26.0158 291.168 23.8621C291.988 22.393 292.908 20.9952 294.026 19.7401C295.186 18.4564 296.375 17.187 297.818 16.2171C299.078 15.3756 300.351 14.5341 301.681 13.8209C303.45 12.8653 305.36 12.2235 307.299 11.6957C309.365 11.1395 311.445 10.8257 313.539 10.7829C313.638 10.7258 313.737 10.683 313.85 10.6403C314.176 10.4263 314.572 10.2694 315.039 10.1838C315.407 10.0697 315.775 9.98415 316.143 9.89857C316.737 9.75594 317.346 9.71315 317.94 9.69889C318.789 9.68463 319.624 9.78447 320.459 9.98415C321.237 10.1696 321.987 10.4406 322.694 10.8114C322.708 10.8114 322.723 10.8257 322.723 10.8542C322.51 10.7829 322.298 10.7116 322.086 10.6403C321.194 10.3835 320.303 10.2837 319.383 10.355C318.987 10.3835 318.605 10.4548 318.223 10.5547C318.746 10.7829 319.185 11.0681 319.496 11.3962C321.831 11.9382 324.053 12.8225 326.175 13.9493C328.057 14.9477 329.84 16.0745 331.467 17.4437C334.128 19.6688 336.222 22.336 337.651 25.5166C338.797 28.0555 339.434 30.7227 339.604 33.4897C339.646 34.1601 339.646 34.8304 339.66 35.5008C339.731 35.458 339.759 35.4009 339.759 35.3582C340.071 32.962 340.071 30.5658 339.816 28.1696Z" fill="#282D7D"/>
<path d="M298.2 49.9065C300.365 52.1315 302.743 53.4865 305.488 54.0856C309.308 54.9271 312.945 54.485 316.27 52.2456C317.742 51.2472 318.888 49.935 319.581 48.2948C321.01 44.9144 320.529 41.6767 318.52 38.6815C317.162 36.6561 315.237 35.2441 313.044 34.2314C311.006 33.29 308.855 32.7623 306.606 32.6624C304.525 32.5769 302.502 32.8907 300.648 33.8178C298.172 35.0586 296.318 36.9271 295.441 39.6656C294.988 41.0919 294.861 42.561 295.116 44.0301C295.526 46.412 296.658 48.4089 298.186 49.8922L298.2 49.9065Z" fill="#282D7D"/>
<path d="M0.806559 55.7971V62.0729H0V55.7971H0.806559Z" fill="#282D7D"/>
<path d="M3.9762 62.0872V55.8114H4.85351L6.84868 58.9921C7.31563 59.7338 7.66939 60.3899 7.96654 61.0317H7.98069C7.90994 60.1902 7.88164 59.42 7.88164 58.4358V55.8114H8.64575V62.0872H7.83919L5.85817 58.9065C5.41951 58.2076 5.00916 57.4945 4.69785 56.8098H4.66955C4.712 57.6086 4.7403 58.3645 4.7403 59.4057V62.0872H3.9762Z" fill="#282D7D"/>
<path d="M16.584 61.8019C16.2303 61.9303 15.5086 62.1442 14.6738 62.1442C13.7257 62.1442 12.9474 61.9017 12.339 61.317C11.8013 60.7892 11.4758 59.962 11.4758 58.9778C11.4758 57.1093 12.7635 55.7401 14.8436 55.7401C15.5652 55.7401 16.1312 55.897 16.4001 56.0254L16.202 56.6815C15.8624 56.5388 15.452 56.4105 14.8294 56.4105C13.3154 56.4105 12.3248 57.3661 12.3248 58.935C12.3248 60.504 13.2729 61.4738 14.7304 61.4738C15.2539 61.4738 15.6218 61.4025 15.8058 61.3027V59.4342H14.5323V58.7781H16.584V61.8019Z" fill="#282D7D"/>
<path d="M22.8101 59.1347H20.3904V61.4025H23.0931V62.0872H19.5839V55.8114H22.9516V56.496H20.3904V58.4786H22.8101V59.149V59.1347Z" fill="#282D7D"/>
<path d="M25.8948 62.0872V55.8114H26.7721L28.7673 58.9921C29.2342 59.7338 29.588 60.3899 29.8851 61.0317H29.8993C29.8285 60.1902 29.8002 59.42 29.8002 58.4358V55.8114H30.5643V62.0872H29.7578L27.7767 58.9065C27.3381 58.2076 26.9277 57.4945 26.6164 56.8098H26.5881C26.6306 57.6086 26.6589 58.3645 26.6589 59.4057V62.0872H25.8948Z" fill="#282D7D"/>
<path d="M34.5547 55.7971V62.0729H33.7482V55.7971H34.5547Z" fill="#282D7D"/>
<path d="M40.9648 59.1347H38.5451V61.4025H41.2478V62.0872H37.7385V55.8114H41.1063V56.496H38.5451V58.4786H40.9648V59.149V59.1347Z" fill="#282D7D"/>
<path d="M44.0494 55.8827C44.4598 55.7972 45.04 55.7544 45.5918 55.7544C46.455 55.7544 47.0068 55.9113 47.3889 56.2678C47.7002 56.5531 47.8841 56.981 47.8841 57.4659C47.8841 58.2932 47.3606 58.8495 46.7097 59.0634V59.0919C47.1908 59.2631 47.4738 59.7052 47.6294 60.3613C47.8275 61.2314 47.9832 61.8447 48.1105 62.0872H47.2757C47.1766 61.916 47.0351 61.374 46.8653 60.5895C46.6814 59.7195 46.3418 59.3914 45.6201 59.3629H44.856V62.0872H44.0494V55.897V55.8827ZM44.856 58.7496H45.6767C46.5399 58.7496 47.0776 58.2789 47.0776 57.5515C47.0776 56.7385 46.4974 56.3819 45.6484 56.3819C45.2664 56.3819 44.9834 56.4247 44.856 56.4533V58.7496Z" fill="#282D7D"/>
<path d="M52.5536 54.3708L51.365 55.4548H50.7141L51.5631 54.3708H52.5536ZM51.6056 55.7971V62.0729H50.799V55.7971H51.6056Z" fill="#282D7D"/>
<path d="M55.7941 60.1046L55.1432 62.0872H54.3083L56.4309 55.8114H57.4072L59.5298 62.0872H58.6666L58.0015 60.1046H55.7941ZM57.8317 59.477L57.2233 57.6656C57.0818 57.252 56.9969 56.8811 56.8978 56.5246H56.8837C56.7846 56.8954 56.6856 57.2805 56.5724 57.6656L55.9639 59.477H57.8459H57.8317Z" fill="#282D7D"/>
<path d="M69.1659 59.1347H66.7463V61.4025H69.4489V62.0872H65.9397V55.8114H69.3074V56.496H66.7463V58.4786H69.1659V59.149V59.1347Z" fill="#282D7D"/>
<path d="M72.2649 62.0872V55.8114H73.1422L75.1374 58.9921C75.6043 59.7338 75.9581 60.3899 76.2552 61.0317H76.2694C76.1986 60.1902 76.1703 59.42 76.1703 58.4358V55.8114H76.9344V62.0872H76.1279L74.1469 58.9065C73.7082 58.2076 73.2979 57.4945 72.9866 56.8098H72.9583C73.0007 57.6086 73.029 58.3645 73.029 59.4057V62.0872H72.2649Z" fill="#282D7D"/>
<path d="M89.1036 59.3201C89.0611 58.4501 89.0045 57.3946 89.0045 56.6101H88.9762C88.764 57.3518 88.5093 58.122 88.1838 58.9921L87.0801 62.0444H86.4717L85.467 59.0491C85.1699 58.1648 84.9151 57.3518 84.7453 56.6101H84.7312C84.717 57.3946 84.6604 58.4501 84.618 59.3914L84.4482 62.0872H83.6841L84.1227 55.8114H85.1557L86.217 58.8494C86.4717 59.6197 86.6839 60.3185 86.8396 60.9604H86.8679C87.0235 60.3328 87.2499 59.6339 87.5188 58.8494L88.6225 55.8114H89.6555L90.0375 62.0872H89.2451L89.0894 59.3344L89.1036 59.3201Z" fill="#282D7D"/>
<path d="M93.9712 60.1046L93.3203 62.0872H92.4855L94.608 55.8114H95.5844L97.7069 62.0872H96.8437L96.1787 60.1046H93.9712ZM96.0089 59.477L95.4004 57.6656C95.2589 57.252 95.174 56.8811 95.075 56.5246H95.0608C94.9618 56.8954 94.8627 57.2805 94.7495 57.6656L94.141 59.477H96.023H96.0089Z" fill="#282D7D"/>
<path d="M105.39 63C104.556 62.7718 103.721 62.5293 102.999 62.2726C102.872 62.2298 102.744 62.1727 102.617 62.1727C101.131 62.1157 99.8718 61.0174 99.8718 58.9921C99.8718 56.9667 101.089 55.683 102.773 55.683C104.456 55.683 105.56 57.0095 105.56 58.8637C105.56 60.4754 104.824 61.5166 103.791 61.8732V61.916C104.414 62.0729 105.079 62.2298 105.617 62.3154L105.39 63ZM104.725 58.9065C104.725 57.6513 104.074 56.3534 102.758 56.3534C101.442 56.3534 100.735 57.6228 100.749 58.9778C100.749 60.3043 101.471 61.5166 102.73 61.5166C103.99 61.5166 104.739 60.3471 104.739 58.9065H104.725Z" fill="#282D7D"/>
<path d="M109.197 55.7971V59.5198C109.197 60.9319 109.819 61.5166 110.654 61.5166C111.574 61.5166 112.168 60.9033 112.168 59.5198V55.7971H112.975V59.4628C112.975 61.3883 111.97 62.187 110.612 62.187C109.338 62.187 108.376 61.4453 108.376 59.5056V55.8114H109.183L109.197 55.7971Z" fill="#282D7D"/>
<path d="M116.951 55.7971V62.0729H116.145V55.7971H116.951Z" fill="#282D7D"/>
<path d="M120.135 62.0872V55.8114H121.012L123.007 58.9921C123.474 59.7338 123.828 60.3899 124.125 61.0317H124.139C124.069 60.1902 124.04 59.42 124.04 58.4358V55.8114H124.804V62.0872H123.998L122.017 58.9065C121.578 58.2076 121.168 57.4945 120.857 56.8098H120.828C120.871 57.6086 120.899 58.3645 120.899 59.4057V62.0872H120.135Z" fill="#282D7D"/>
<path d="M128.993 60.1046L128.342 62.0872H127.507L129.63 55.8114H130.606L132.728 62.0872H131.865L131.2 60.1046H128.993ZM131.03 59.477L130.422 57.6656C130.281 57.252 130.196 56.8811 130.097 56.5246H130.082C129.983 56.8954 129.884 57.2805 129.771 57.6656L129.163 59.477H131.045H131.03Z" fill="#282D7D"/>
<path d="M135.417 55.8827C135.827 55.7972 136.408 55.7544 136.959 55.7544C137.823 55.7544 138.374 55.9113 138.756 56.2678C139.068 56.5531 139.252 56.981 139.252 57.4659C139.252 58.2932 138.728 58.8495 138.077 59.0634V59.0919C138.558 59.2631 138.841 59.7052 138.997 60.3613C139.195 61.2314 139.351 61.8447 139.478 62.0872H138.643C138.544 61.916 138.403 61.374 138.233 60.5895C138.049 59.7195 137.709 59.3914 136.988 59.3629H136.224V62.0872H135.417V55.897V55.8827ZM136.209 58.7496H137.03C137.893 58.7496 138.431 58.2789 138.431 57.5515C138.431 56.7385 137.851 56.3819 137.002 56.3819C136.62 56.3819 136.337 56.4247 136.209 56.4533V58.7496Z" fill="#282D7D"/>
<path d="M142.959 55.7971V62.0729H142.152V55.7971H142.959Z" fill="#282D7D"/>
<path d="M147.148 60.1046L146.497 62.0872H145.662L147.784 55.8114H148.761L150.883 62.0872H150.02L149.355 60.1046H147.148ZM149.185 59.477L148.577 57.6656C148.435 57.252 148.35 56.8811 148.251 56.5246H148.237C148.138 56.8954 148.039 57.2805 147.926 57.6656L147.317 59.477H149.199H149.185Z" fill="#282D7D"/>
<path d="M158.269 62.0872V59.42L156.303 55.7971H157.222L158.1 57.5372C158.34 58.0079 158.524 58.393 158.722 58.8352H158.736C158.906 58.4216 159.118 58.0222 159.359 57.5372L160.251 55.7971H161.17L159.076 59.4057V62.0872H158.255H158.269Z" fill="#282D7D"/>
<path d="M168.387 60.1046L167.736 62.0872H166.901L169.024 55.8114H170L172.123 62.0872H171.259L170.594 60.1046H168.387ZM170.439 59.477L169.83 57.6656C169.689 57.252 169.604 56.8811 169.505 56.5246H169.491C169.392 56.8954 169.293 57.2805 169.179 57.6656L168.571 59.477H170.453H170.439Z" fill="#282D7D"/>
<path d="M175.363 55.7971V59.5198C175.363 60.9319 175.986 61.5166 176.82 61.5166C177.74 61.5166 178.334 60.9033 178.334 59.5198V55.7971H179.141V59.4628C179.141 61.3883 178.136 62.187 176.778 62.187C175.504 62.187 174.542 61.4453 174.542 59.5056V55.8114H175.349L175.363 55.7971Z" fill="#282D7D"/>
<path d="M183.485 56.496H181.589V55.8114H186.202V56.496H184.292V62.0872H183.471V56.496H183.485Z" fill="#282D7D"/>
<path d="M193.744 58.878C193.744 61.046 192.442 62.187 190.857 62.187C189.272 62.187 188.056 60.9033 188.056 59.0063C188.056 57.0095 189.287 55.7116 190.942 55.7116C192.598 55.7116 193.744 57.0238 193.744 58.8922V58.878ZM188.919 58.9778C188.919 60.3185 189.64 61.5166 190.9 61.5166C192.159 61.5166 192.895 60.3328 192.895 58.9065C192.895 57.6514 192.244 56.3534 190.914 56.3534C189.584 56.3534 188.919 57.5943 188.919 58.9778Z" fill="#282D7D"/>
<path d="M201.81 59.3201C201.767 58.4501 201.71 57.3946 201.71 56.6101H201.682C201.47 57.3518 201.215 58.122 200.89 58.9921L199.786 62.0444H199.178L198.173 59.0491C197.876 58.1648 197.621 57.3518 197.451 56.6101H197.437C197.423 57.3946 197.366 58.4501 197.324 59.3914L197.154 62.0872H196.39L196.829 55.8114H197.862L198.923 58.8494C199.178 59.6197 199.39 60.3185 199.546 60.9604H199.574C199.729 60.3328 199.956 59.6339 200.225 58.8494L201.328 55.8114H202.361L202.743 62.0872H201.951L201.795 59.3344L201.81 59.3201Z" fill="#282D7D"/>
<path d="M206.677 60.1046L206.026 62.0872H205.191L207.314 55.8114H208.29L210.413 62.0872H209.55L208.885 60.1046H206.677ZM208.729 59.477L208.12 57.6656C207.979 57.252 207.894 56.8811 207.795 56.5246H207.781C207.682 56.8954 207.583 57.2805 207.47 57.6656L206.861 59.477H208.743H208.729Z" fill="#282D7D"/>
<path d="M213.568 56.496H211.672V55.8114H216.285V56.496H214.375V62.0872H213.554V56.496H213.568Z" fill="#282D7D"/>
<path d="M219.568 55.7971V62.0729H218.761V55.7971H219.568Z" fill="#282D7D"/>
<path d="M222.313 61.6022L225.766 56.5103V56.4818H222.61V55.7971H226.813V56.2964L223.374 61.374V61.4025H226.855V62.0872H222.313V61.6165V61.6022Z" fill="#282D7D"/>
<path d="M230.633 60.1046L229.983 62.0872H229.148L231.27 55.8114H232.247L234.369 62.0872H233.506L232.841 60.1046H230.633ZM232.671 59.477L232.063 57.6656C231.921 57.252 231.836 56.8811 231.737 56.5246H231.723C231.624 56.8954 231.525 57.2805 231.412 57.6656L230.803 59.477H232.685H232.671Z" fill="#282D7D"/>
<path d="M241.274 61.8732C240.977 62.0159 240.383 62.1727 239.633 62.1727C237.878 62.1727 236.548 61.0602 236.548 58.9921C236.548 56.9239 237.864 55.6973 239.803 55.6973C240.581 55.6973 241.076 55.8685 241.289 55.9826L241.09 56.6387C240.779 56.496 240.355 56.3819 239.831 56.3819C238.374 56.3819 237.397 57.3233 237.397 58.9778C237.397 60.5182 238.275 61.5024 239.789 61.5024C240.284 61.5024 240.779 61.4025 241.105 61.2456L241.274 61.8875V61.8732Z" fill="#282D7D"/>
<path d="M244.854 55.7971V62.0729H244.048V55.7971H244.854Z" fill="#282D7D"/>
<path d="M253.359 58.878C253.359 61.046 252.057 62.187 250.472 62.187C248.887 62.187 247.67 60.9033 247.67 59.0063C247.67 57.0095 248.901 55.7116 250.557 55.7116C252.212 55.7116 253.359 57.0238 253.359 58.8922V58.878ZM248.519 58.9778C248.519 60.3185 249.241 61.5166 250.5 61.5166C251.76 61.5166 252.495 60.3328 252.495 58.9065C252.495 57.6514 251.844 56.3534 250.514 56.3534C249.184 56.3534 248.519 57.5943 248.519 58.9778ZM251.859 54.3566L250.684 55.4406H250.019L250.882 54.3566H251.859Z" fill="#282D7D"/>
<path d="M256.174 62.0872V55.8114H257.052L259.047 58.9921C259.514 59.7338 259.868 60.3899 260.165 61.0317H260.179C260.108 60.1902 260.08 59.42 260.08 58.4358V55.8114H260.844V62.0872H260.037L258.056 58.9065C257.618 58.2076 257.207 57.4945 256.896 56.8098H256.868C256.91 57.6086 256.939 58.3645 256.939 59.4057V62.0872H256.174Z" fill="#282D7D"/>
<path d="M26.9136 8.21553V0.0570526H0V8.21553H9.1976V39.2235H0V47.3819H26.9136V39.2235H17.716V8.21553H26.9136Z" fill="#282D7D"/>
<path d="M166.208 0.0570526H153.897L139.28 47.3677H148.393L151.789 35.8859H168.175L171.571 47.3677H180.683L166.208 0.0570526ZM154.166 27.9271L159.996 8.15848L165.826 27.9271H154.166Z" fill="#282D7D"/>
<path d="M211.573 0.0570526V30.1236C211.573 36.7132 208.672 39.794 202.432 39.794C196.192 39.794 193.404 36.6276 193.404 30.1236V0.0570526H184.872V30.252C184.872 41.3344 191.438 47.9382 202.418 47.9382C213.399 47.9382 220.092 41.4913 220.092 30.252V0.0570526H211.559H211.573Z" fill="#282D7D"/>
<path d="M226.374 0.0570526V8.21553H239.35V47.3819H247.883V8.21553H260.844V0.0570526H226.374Z" fill="#282D7D"/>
<path d="M65.4869 0.0570526V44.1585L48.0539 0.0570526H40.6392H40.5543H32.2482V47.3819H40.6392V3.5943L57.6902 47.3819H65.4869H65.5718H73.8921V0.0570526H65.4869Z" fill="#282D7D"/>
<path d="M125.455 0.0570526H125.356H117.942L106.551 42.6751L95.1598 0.0570526H87.7452H87.6461H79.34V47.3819H87.7452V3.63708L99.0653 47.3819H106.155H106.947H114.036L125.356 3.63708V47.3819H133.761V0.0570526H125.455Z" fill="#282D7D"/>
<path d="M278.829 8.41521C278.829 13.1933 275.107 16.9303 270.268 16.9303C265.429 16.9303 261.665 13.1791 261.665 8.41521C261.665 3.65135 265.485 0 270.268 0C275.051 0 278.829 3.75119 278.829 8.41521ZM263.801 8.41521C263.801 12.1664 266.546 15.1331 270.325 15.1331C274.103 15.1331 276.692 12.1521 276.692 8.458C276.692 4.76387 273.989 1.68304 270.282 1.68304C266.575 1.68304 263.816 4.70681 263.816 8.40095L263.801 8.41521ZM268.938 12.8368H266.999V4.42155C267.763 4.26466 268.839 4.16482 270.211 4.16482C271.796 4.16482 272.504 4.42155 273.112 4.77813C273.565 5.13471 273.933 5.80507 273.933 6.63233C273.933 7.55943 273.225 8.27258 272.207 8.58637V8.68621C273.027 9 273.48 9.61331 273.735 10.7401C273.989 12.0238 274.145 12.5372 274.343 12.851H272.249C271.994 12.5372 271.839 11.767 271.584 10.7971C271.428 9.87005 270.919 9.45642 269.858 9.45642H268.938V12.851V12.8368ZM268.994 8.05864H269.914C270.99 8.05864 271.853 7.70206 271.853 6.83201C271.853 6.06181 271.287 5.54834 270.07 5.54834C269.56 5.54834 269.207 5.60539 268.994 5.64818V8.05864Z" fill="#282D7D"/>
</g>
<defs>
<clipPath id="clip0_4292_364">
<rect width="340" height="63" fill="white"/>
</clipPath>
</defs>
</svg>
